<svg width="115" height="115" viewBox="0 0 115 115" fill="none" xmlns="http://www.w3.org/2000/svg">
<circle cx="57.5" cy="57.5" r="56" stroke="black" stroke-width="3"/>
<path d="M45.5 72C42.75 72 40.525 74.25 40.525 77C40.525 79.75 42.75 82 45.5 82C48.25 82 50.5 79.75 50.5 77C50.5 74.25 48.25 72 45.5 72ZM30.5 32V37H35.5L44.5 55.975L41.125 62.1C40.725 62.8 40.5 63.625 40.5 64.5C40.5 67.25 42.75 69.5 45.5 69.5H75.5V64.5H46.55C46.2 64.5 45.925 64.225 45.925 63.875L46 63.575L48.25 59.5H66.875C68.75 59.5 70.4 58.475 71.25 56.925L80.2 40.7C80.4 40.35 80.5 39.925 80.5 39.5C80.5 38.125 79.375 37 78 37H41.025L38.675 32L30.5 32ZM70.5 72C67.75 72 65.525 74.25 65.525 77C65.525 79.75 67.75 82 70.5 82C73.25 82 75.5 79.75 75.5 77C75.5 74.25 73.25 72 70.5 72Z" fill="black"/>
</svg>
