<svg width="115" height="115" viewBox="0 0 115 115" fill="none" xmlns="http://www.w3.org/2000/svg">
<circle cx="57.5" cy="57.5" r="56" stroke="black" stroke-width="3"/>
<path d="M38 53.25C35.925 53.25 34.25 54.925 34.25 57C34.25 59.075 35.925 60.75 38 60.75C40.075 60.75 41.75 59.075 41.75 57C41.75 54.925 40.075 53.25 38 53.25ZM38 38.25C35.925 38.25 34.25 39.925 34.25 42C34.25 44.075 35.925 45.75 38 45.75C40.075 45.75 41.75 44.075 41.75 42C41.75 39.925 40.075 38.25 38 38.25ZM38 68.25C35.925 68.25 34.25 69.95 34.25 72C34.25 74.05 35.95 75.75 38 75.75C40.05 75.75 41.75 74.05 41.75 72C41.75 69.95 40.075 68.25 38 68.25ZM45.5 74.5H80.5V69.5H45.5V74.5ZM45.5 59.5H80.5V54.5H45.5V59.5ZM45.5 39.5V44.5H80.5V39.5H45.5Z" fill="black"/>
</svg>
